<svg xmlns="http://www.w3.org/2000/svg" width="134.469" height="43.654" viewBox="0 0 134.469 43.654">
  <g id="Logo_Peyk" data-name="Logo Peyk" transform="translate(0.004 -1743.42)">
    <path id="Path_1" data-name="Path 1" d="M597.423,435.24c5,0,7.753,2.94,7.753,9.167s-2.789,9.212-7.753,9.212a6.061,6.061,0,0,1-4.508-1.643v6.761a2.063,2.063,0,0,1-4.125,0v-21.2a2.063,2.063,0,0,1,4.125,0A5.624,5.624,0,0,1,597.423,435.24Zm-.537,3.513c-2.672,0-4.086,1.909-4.086,5.693,0,3.742,1.414,5.651,4.086,5.651s4.089-1.909,4.089-5.651C600.975,440.662,599.561,438.753,596.886,438.753Z" transform="translate(-523.09 1322.92)" fill="#29455b"/>
    <path id="Path_2" data-name="Path 2" d="M661.162,435.24c6.456,0,7.638,4.966,7.638,7.6,0,1.414,0,3.058-2.328,3.058h-9.435c0,2.75,1.956,4.01,4.472,4.01a6.531,6.531,0,0,0,3.781-1.185,2.068,2.068,0,0,1,1.221-.419,1.794,1.794,0,0,1,1.8,1.794,1.909,1.909,0,0,1-.651,1.414,8.979,8.979,0,0,1-6.149,2.1c-5.31,0-8.594-2.865-8.594-9.245C652.912,438.527,655.966,435.24,661.162,435.24Zm-4.011,7.219h7.563a3.419,3.419,0,0,0-3.552-3.706A3.728,3.728,0,0,0,657.151,442.459Z" transform="translate(-569.297 1322.92)" fill="#29455b"/>
    <path id="Path_3" data-name="Path 3" d="M718.909,452.484l-5.869-13.56a2.154,2.154,0,0,1-.154-.8,2.054,2.054,0,0,1,2.063-2.063,2.018,2.018,0,0,1,1.892,1.3l4.192,10.62,4.192-10.62a2.018,2.018,0,0,1,1.912-1.3,2.054,2.054,0,0,1,2.063,2.063,2.156,2.156,0,0,1-.154.8l-7.1,16.042c-1.677,3.742-4.086,6.428-7.906,6.428a1.916,1.916,0,1,1,.011-3.832C716.5,457.563,717.649,455.606,718.909,452.484Z" transform="translate(-611.956 1322.329)" fill="#29455b"/>
    <path id="Path_4" data-name="Path 4" d="M793.539,428.581l-5.693-7.638-1.221.956v5.5a1.99,1.99,0,0,1-2.063,1.984A1.956,1.956,0,0,1,782.5,427.4V403.87a1.956,1.956,0,0,1,2.063-1.987,1.99,1.99,0,0,1,2.063,1.987v13.482l6.914-5.425a2.018,2.018,0,0,1,1.336-.495,1.973,1.973,0,0,1,1.987,1.984,2.012,2.012,0,0,1-.766,1.568l-5,3.818,5.615,7.373a2.064,2.064,0,0,1,.419,1.224,1.991,1.991,0,0,1-3.588,1.182Z" transform="translate(-662.662 1346.957)" fill="#29455b"/>
    <path id="Path_5" data-name="Path 5" d="M389.374,456.9a3.591,3.591,0,1,0,3.589,3.591A3.591,3.591,0,0,0,389.374,456.9Z" transform="translate(-376.817 1307.313)" fill="#29455b" fill-rule="evenodd"/>
    <path id="Path_6" data-name="Path 6" d="M497.081,456.9a3.591,3.591,0,1,0,3.591,3.591A3.591,3.591,0,0,0,497.081,456.9Z" transform="translate(-454.424 1307.313)" fill="#29455b" fill-rule="evenodd"/>
    <path id="Path_7" data-name="Path 7" d="M396.357,394.325a12.637,12.637,0,0,0-2.314.215l-2-5.218a12.526,12.526,0,0,0-7.012-6.822l-1.2,2.935a9.357,9.357,0,0,1,5.279,5.115l1.875,4.975a12.577,12.577,0,0,0-7.074,9.662H378.7a12.56,12.56,0,0,0-5.967-9.069H374.9V392.98H357.093v3.144h2.689a12.56,12.56,0,1,0,18.951,12.213h5.151a12.56,12.56,0,1,0,12.473-14.01Zm-30.1,21.945a9.385,9.385,0,1,1,9.382-9.384A9.385,9.385,0,0,1,366.257,416.269Zm30.1,0a9.385,9.385,0,1,1,9.385-9.385,9.385,9.385,0,0,1-9.385,9.385Z" transform="translate(-353.7 1360.92)" fill="#29455b" fill-rule="evenodd"/>
    <path id="Path_8" data-name="Path 8" d="M428.8,519.941a9.357,9.357,0,0,1-6.763-2.881L419.8,519.3a12.551,12.551,0,0,0,18.018,0l-2.236-2.236A9.352,9.352,0,0,1,428.8,519.941Z" transform="translate(-401.329 1263.967)" fill="#29455b" fill-rule="evenodd"/>
  </g>
</svg>
